<svg width="15" height="26" viewBox="0 0 15 26" fill="none" xmlns="http://www.w3.org/2000/svg">
<path d="M7.67337 11.6398C4.5671 10.8325 3.56816 9.99777 3.56816 8.69778C3.56816 7.20622 4.95025 6.16624 7.26285 6.16624C9.20598 6.16624 10.1775 6.90518 10.5333 8.082C10.6975 8.62936 11.1491 9.03988 11.7238 9.03988H12.1344C13.0375 9.03988 13.6807 8.15042 13.3659 7.30201C12.7912 5.6873 11.4502 4.34626 9.31546 3.82627V2.88207C9.31546 1.7463 8.39863 0.829468 7.26285 0.829468C6.12708 0.829468 5.21025 1.7463 5.21025 2.88207V3.78522C2.55555 4.35995 0.420837 6.08414 0.420837 8.72515C0.420837 11.8862 3.03449 13.4598 6.85233 14.3767C10.2733 15.1977 10.9575 16.4019 10.9575 17.6745C10.9575 18.6187 10.287 20.1239 7.26285 20.1239C5.00499 20.1239 3.84184 19.3166 3.39027 18.1671C3.18501 17.6335 2.71975 17.2503 2.15871 17.2503H1.77556C0.858726 17.2503 0.215577 18.1808 0.557678 19.0292C1.33767 20.9313 3.15764 22.0534 5.21025 22.4913V23.4081C5.21025 24.5439 6.12708 25.4607 7.26285 25.4607C8.39863 25.4607 9.31546 24.5439 9.31546 23.4081V22.5187C11.9838 22.0123 14.1049 20.466 14.1049 17.6608C14.1049 13.7746 10.7796 12.4472 7.67337 11.6398Z" fill="white"/>
</svg>
