<svg width="20" height="20" viewBox="0 0 20 20" fill="none" xmlns="http://www.w3.org/2000/svg">
<path d="M2.28399 6.31358H2.55767C3.61134 6.31358 4.47343 7.17567 4.47343 8.22934V17.8082C4.47343 18.8618 3.61134 19.7239 2.55767 19.7239H2.28399C1.23032 19.7239 0.368225 18.8618 0.368225 17.8082V8.22934C0.368225 7.17567 1.23032 6.31358 2.28399 6.31358ZM9.94705 0.566284C11.0007 0.566284 11.8628 1.42838 11.8628 2.48205V17.8082C11.8628 18.8618 11.0007 19.7239 9.94705 19.7239C8.89337 19.7239 8.03128 18.8618 8.03128 17.8082V2.48205C8.03128 1.42838 8.89337 0.566284 9.94705 0.566284ZM17.6101 11.5135C18.6638 11.5135 19.5259 12.3756 19.5259 13.4293V17.8082C19.5259 18.8618 18.6638 19.7239 17.6101 19.7239C16.5564 19.7239 15.6943 18.8618 15.6943 17.8082V13.4293C15.6943 12.3756 16.5564 11.5135 17.6101 11.5135Z" fill="white"/>
</svg>
