<svg width="69" height="77" viewBox="0 0 69 77" fill="none" xmlns="http://www.w3.org/2000/svg">
<path d="M56.5296 9.94867C56.2263 9.94867 55.9229 9.87283 55.6575 9.72117C48.3775 5.96742 42.0833 4.37492 34.5379 4.37492C27.0304 4.37492 19.9021 6.157 13.4183 9.72117C12.5083 10.2141 11.3708 9.87284 10.84 8.96284C10.3471 8.05283 10.6883 6.87742 11.5983 6.3845C18.6508 2.55492 26.3858 0.583252 34.5379 0.583252C42.6142 0.583252 49.6667 2.36534 57.4017 6.34658C58.3496 6.8395 58.6908 7.977 58.1979 8.887C57.8567 9.5695 57.2121 9.94867 56.5296 9.94867ZM2.27085 29.8549C1.89168 29.8549 1.51251 29.7412 1.17126 29.5137C0.299181 28.907 0.109597 27.7316 0.716264 26.8595C4.47001 21.5512 9.24751 17.3803 14.935 14.4608C26.8408 8.31825 42.0833 8.28034 54.0271 14.4228C59.7146 17.3424 64.4921 21.4753 68.2458 26.7457C68.8525 27.5799 68.6629 28.7933 67.7908 29.3999C66.9188 30.0066 65.7433 29.817 65.1367 28.9449C61.7242 24.1674 57.4017 20.4137 52.2829 17.7974C41.4008 12.2237 27.4854 12.2237 16.6413 17.8353C11.4846 20.4895 7.1621 24.2812 3.7496 29.0587C3.44626 29.5895 2.87751 29.8549 2.27085 29.8549ZM25.9688 75.6203C25.4758 75.6203 24.9829 75.4307 24.6417 75.0516C21.3429 71.7528 19.5608 69.6295 17.0204 65.0416C14.4042 60.3778 13.0392 54.6903 13.0392 48.5858C13.0392 37.3245 22.67 28.1487 34.5 28.1487C46.33 28.1487 55.9608 37.3245 55.9608 48.5858C55.9608 49.6474 55.1267 50.4816 54.065 50.4816C53.0033 50.4816 52.1692 49.6474 52.1692 48.5858C52.1692 39.4099 44.2446 31.9403 34.5 31.9403C24.7554 31.9403 16.8308 39.4099 16.8308 48.5858C16.8308 54.0457 18.0442 59.0887 20.3571 63.1837C22.7838 67.5441 24.4521 69.402 27.3717 72.3595C28.0921 73.1178 28.0921 74.2932 27.3717 75.0516C26.9546 75.4307 26.4617 75.6203 25.9688 75.6203ZM53.155 68.6058C48.6429 68.6058 44.6617 67.4682 41.4008 65.2312C35.7513 61.4016 32.3767 55.1833 32.3767 48.5858C32.3767 47.5241 33.2108 46.6899 34.2725 46.6899C35.3342 46.6899 36.1683 47.5241 36.1683 48.5858C36.1683 53.932 38.8983 58.9749 43.5242 62.0841C46.2163 63.9041 49.3633 64.7762 53.155 64.7762C54.065 64.7762 55.5817 64.6624 57.0983 64.397C58.1221 64.2074 59.1079 64.8899 59.2975 65.9516C59.4871 66.9753 58.8046 67.9612 57.7429 68.1507C55.5817 68.5678 53.6858 68.6058 53.155 68.6058ZM45.5338 76.4166C45.3821 76.4166 45.1925 76.3787 45.0408 76.3407C39.0121 74.6724 35.0688 72.4353 30.9358 68.3782C25.6275 63.1078 22.7079 56.0933 22.7079 48.5858C22.7079 42.4432 27.9404 37.4383 34.3863 37.4383C40.8321 37.4383 46.0646 42.4432 46.0646 48.5858C46.0646 52.6428 49.5908 55.9416 53.9513 55.9416C58.3117 55.9416 61.8379 52.6428 61.8379 48.5858C61.8379 34.2912 49.515 22.6887 34.3483 22.6887C23.58 22.6887 13.7217 28.6795 9.28543 37.9691C7.80668 41.0403 7.04835 44.6424 7.04835 48.5858C7.04835 51.5432 7.31376 56.207 9.58876 62.2737C9.96793 63.2595 9.47501 64.3591 8.48918 64.7003C7.50335 65.0795 6.40376 64.5487 6.06251 63.6008C4.2046 58.6337 3.2946 53.7045 3.2946 48.5858C3.2946 44.0357 4.16668 39.9028 5.87293 36.3008C10.9158 25.722 22.1013 18.8591 34.3483 18.8591C51.6004 18.8591 65.6296 32.1678 65.6296 48.5478C65.6296 54.6903 60.3971 59.6953 53.9513 59.6953C47.5054 59.6953 42.2729 54.6903 42.2729 48.5478C42.2729 44.4907 38.7467 41.192 34.3863 41.192C30.0258 41.192 26.4996 44.4907 26.4996 48.5478C26.4996 55.0316 29.0021 61.0982 33.59 65.6482C37.1921 69.2124 40.6425 71.1841 45.9888 72.6628C47.0125 72.9283 47.5813 73.9899 47.3158 74.9758C47.1263 75.8478 46.33 76.4166 45.5338 76.4166Z" fill="white"/>
</svg>
