<svg width="20" height="25" viewBox="0 0 20 25" fill="none" xmlns="http://www.w3.org/2000/svg">
<path d="M18.7267 13.4084C16.895 8.64842 10.3733 8.39175 11.9483 1.47342C12.065 0.960082 11.5167 0.563416 11.0733 0.831749C6.83832 3.32842 3.79332 8.33342 6.34832 14.8901C6.55832 15.4267 5.92832 15.9284 5.47332 15.5784C3.36166 13.9801 3.13999 11.6817 3.32666 10.0367C3.39666 9.43008 2.60332 9.13842 2.26499 9.64008C1.47166 10.8534 0.666656 12.8134 0.666656 15.7651C1.10999 22.2984 6.62832 24.3051 8.61166 24.5617C11.4467 24.9234 14.515 24.3984 16.72 22.3801C19.1467 20.1284 20.0333 16.5351 18.7267 13.4084ZM7.89999 19.2767C9.57999 18.8684 10.4433 17.6551 10.6767 16.5817C11.0617 14.9134 9.55666 13.2801 10.5717 10.6434C10.9567 12.8251 14.3867 14.1901 14.3867 16.5701C14.48 19.5217 11.2833 22.0534 7.89999 19.2767Z" fill="white"/>
</svg>
